<mxfile host="4dc8fb8f-a145-4f9d-84e6-b539f86caf5e" modified="2020-07-15T01:57:37.297Z" agent="5.0 (X11; Linux x86_64) AppleWebKit/537.36 (KHTML, like Gecko) Code/1.47.0 Chrome/78.0.3904.130 Electron/7.3.2 Safari/537.36" etag="J8z2J6Rgr77i7FIABQdX" version="13.1.3">
    <diagram id="6hGFLwfOUW9BJ-s0fimq" name="Page-1">
        <mxGraphModel dx="377" dy="279" grid="1" gridSize="10" guides="1" tooltips="1" connect="1" arrows="1" fold="1" page="1" pageScale="1" pageWidth="1920" pageHeight="1200" math="0" shadow="0">
            <root>
                <mxCell id="0"/>
                <mxCell id="1" parent="0"/>
                <mxCell id="2" value="add_response&lt;br&gt;把传过来的字符串写到write_buf中" style="rounded=0;whiteSpace=wrap;html=1;" parent="1" vertex="1">
                    <mxGeometry x="511" y="120" width="120" height="60" as="geometry"/>
                </mxCell>
                <mxCell id="5" value="" style="edgeStyle=orthogonalEdgeStyle;rounded=0;orthogonalLoop=1;jettySize=auto;html=1;" parent="1" source="3" target="2" edge="1">
                    <mxGeometry relative="1" as="geometry"/>
                </mxCell>
                <mxCell id="3" value="add_line/heads/content/...&lt;br&gt;都是一行行响应报文,调用add_response写入输出缓冲区write_buf中" style="rounded=0;whiteSpace=wrap;html=1;" parent="1" vertex="1">
                    <mxGeometry x="491" y="260" width="160" height="60" as="geometry"/>
                </mxCell>
                <mxCell id="11" value="" style="edgeStyle=orthogonalEdgeStyle;rounded=0;orthogonalLoop=1;jettySize=auto;html=1;" parent="1" source="9" target="3" edge="1">
                    <mxGeometry relative="1" as="geometry"/>
                </mxCell>
                <mxCell id="13" value="" style="edgeStyle=orthogonalEdgeStyle;rounded=0;orthogonalLoop=1;jettySize=auto;html=1;" parent="1" source="9" target="12" edge="1">
                    <mxGeometry relative="1" as="geometry"/>
                </mxCell>
                <mxCell id="9" value="process_wirte&lt;br&gt;响应报文主函数&lt;br&gt;根据状态调用不同的add函数" style="rounded=0;whiteSpace=wrap;html=1;" parent="1" vertex="1">
                    <mxGeometry x="731" y="260" width="160" height="60" as="geometry"/>
                </mxCell>
                <mxCell id="24" value="" style="edgeStyle=orthogonalEdgeStyle;rounded=0;orthogonalLoop=1;jettySize=auto;html=1;entryX=1;entryY=0.5;entryDx=0;entryDy=0;" parent="1" source="21" target="9" edge="1">
                    <mxGeometry relative="1" as="geometry">
                        <mxPoint x="1041" y="290" as="targetPoint"/>
                    </mxGeometry>
                </mxCell>
                <mxCell id="21" value="do_request&lt;br&gt;解析完请求后查看请求资源状态" style="rounded=0;whiteSpace=wrap;html=1;" parent="1" vertex="1">
                    <mxGeometry x="1171" y="260" width="160" height="60" as="geometry"/>
                </mxCell>
                <mxCell id="18" value="" style="edgeStyle=orthogonalEdgeStyle;rounded=0;orthogonalLoop=1;jettySize=auto;html=1;" parent="1" source="14" target="9" edge="1">
                    <mxGeometry relative="1" as="geometry"/>
                </mxCell>
                <mxCell id="26" value="" style="edgeStyle=orthogonalEdgeStyle;rounded=0;orthogonalLoop=1;jettySize=auto;html=1;" parent="1" source="14" target="25" edge="1">
                    <mxGeometry relative="1" as="geometry"/>
                </mxCell>
                <mxCell id="14" value="process_read&lt;br&gt;解析请求报文主函数&lt;br&gt;在while里面根据状态调用不同的解析函数" style="rounded=0;whiteSpace=wrap;html=1;" parent="1" vertex="1">
                    <mxGeometry x="731" y="150" width="160" height="60" as="geometry"/>
                </mxCell>
                <mxCell id="28" value="" style="edgeStyle=orthogonalEdgeStyle;rounded=0;orthogonalLoop=1;jettySize=auto;html=1;" parent="1" source="25" target="27" edge="1">
                    <mxGeometry relative="1" as="geometry"/>
                </mxCell>
                <mxCell id="25" value="parse_line&lt;br&gt;从缓冲区读出一行" style="rounded=0;whiteSpace=wrap;html=1;" parent="1" vertex="1">
                    <mxGeometry x="991" y="155" width="100" height="50" as="geometry"/>
                </mxCell>
                <mxCell id="92" value="" style="edgeStyle=orthogonalEdgeStyle;rounded=0;orthogonalLoop=1;jettySize=auto;html=1;" parent="1" source="27" target="21" edge="1">
                    <mxGeometry relative="1" as="geometry"/>
                </mxCell>
                <mxCell id="27" value="&lt;div&gt;&lt;span&gt;parse_status_line&lt;/span&gt;&lt;/div&gt;&lt;div&gt;&lt;span&gt;parse_headers&lt;/span&gt;&lt;/div&gt;&lt;div&gt;&lt;span&gt;parse_content&lt;/span&gt;&lt;/div&gt;对parse_lin的一行进行解析" style="rounded=0;whiteSpace=wrap;html=1;" parent="1" vertex="1">
                    <mxGeometry x="1171" y="150" width="160" height="60" as="geometry"/>
                </mxCell>
                <mxCell id="19" value="" style="edgeStyle=orthogonalEdgeStyle;rounded=0;orthogonalLoop=1;jettySize=auto;html=1;" parent="1" source="16" target="14" edge="1">
                    <mxGeometry relative="1" as="geometry"/>
                </mxCell>
                <mxCell id="16" value="read_once" style="rounded=0;whiteSpace=wrap;html=1;" parent="1" vertex="1">
                    <mxGeometry x="766" y="60" width="90" height="20" as="geometry"/>
                </mxCell>
                <mxCell id="12" value="wirte&lt;br&gt;聚集写&lt;br&gt;把报文和资源输出给浏览器" style="rounded=0;whiteSpace=wrap;html=1;" parent="1" vertex="1">
                    <mxGeometry x="731" y="400" width="160" height="60" as="geometry"/>
                </mxCell>
                <mxCell id="6" value="" style="curved=1;endArrow=classic;html=1;exitX=0;exitY=0.5;exitDx=0;exitDy=0;" parent="1" edge="1">
                    <mxGeometry width="50" height="50" relative="1" as="geometry">
                        <mxPoint x="510.00000000000006" y="150" as="sourcePoint"/>
                        <mxPoint x="491" y="294" as="targetPoint"/>
                        <Array as="points">
                            <mxPoint x="460" y="200"/>
                            <mxPoint x="471" y="280"/>
                        </Array>
                    </mxGeometry>
                </mxCell>
                <mxCell id="29" value="循环(while)&lt;br&gt;直到状态行/主体解析完毕" style="rounded=0;whiteSpace=wrap;html=1;" parent="1" vertex="1">
                    <mxGeometry x="1071" y="30" width="150" height="50" as="geometry"/>
                </mxCell>
                <mxCell id="89" value="" style="edgeStyle=elbowEdgeStyle;elbow=vertical;endArrow=classic;html=1;exitX=0.5;exitY=1;exitDx=0;exitDy=0;" parent="1" source="29" edge="1">
                    <mxGeometry width="50" height="50" relative="1" as="geometry">
                        <mxPoint x="1111" y="230" as="sourcePoint"/>
                        <mxPoint x="1041" y="150" as="targetPoint"/>
                    </mxGeometry>
                </mxCell>
                <mxCell id="90" value="" style="edgeStyle=elbowEdgeStyle;elbow=vertical;endArrow=classic;html=1;entryX=0.5;entryY=0;entryDx=0;entryDy=0;" parent="1" source="29" target="27" edge="1">
                    <mxGeometry width="50" height="50" relative="1" as="geometry">
                        <mxPoint x="1111" y="230" as="sourcePoint"/>
                        <mxPoint x="1161" y="180" as="targetPoint"/>
                    </mxGeometry>
                </mxCell>
                <mxCell id="93" value="" style="rounded=0;whiteSpace=wrap;html=1;fillColor=none;" parent="1" vertex="1">
                    <mxGeometry x="34" y="578" width="1890" height="620" as="geometry"/>
                </mxCell>
                <mxCell id="95" value="&lt;font color=&quot;#ff0000&quot;&gt;主状态机&lt;/font&gt;" style="text;strokeColor=none;fillColor=none;html=1;fontSize=24;fontStyle=1;verticalAlign=middle;align=center;" parent="1" vertex="1">
                    <mxGeometry x="100" y="600" width="100" height="40" as="geometry"/>
                </mxCell>
                <mxCell id="96" value="&lt;font style=&quot;font-size: 18px&quot;&gt;CHECK_STAT_REQUESTLINE&lt;/font&gt;" style="ellipse;whiteSpace=wrap;html=1;strokeColor=#3A5431;fillColor=#6d8764;fontColor=#ffffff;" parent="1" vertex="1">
                    <mxGeometry x="100" y="650" width="340" height="120" as="geometry"/>
                </mxCell>
                <mxCell id="121" value="" style="edgeStyle=orthogonalEdgeStyle;rounded=0;orthogonalLoop=1;jettySize=auto;html=1;" parent="1" source="100" target="96" edge="1">
                    <mxGeometry relative="1" as="geometry"/>
                </mxCell>
                <mxCell id="100" value="" style="rounded=1;whiteSpace=wrap;html=1;strokeColor=#432D57;fillColor=#76608a;fontColor=#ffffff;" parent="1" vertex="1">
                    <mxGeometry x="70" y="870" width="400" height="290" as="geometry"/>
                </mxCell>
                <mxCell id="118" value="" style="edgeStyle=orthogonalEdgeStyle;rounded=0;orthogonalLoop=1;jettySize=auto;html=1;" parent="1" source="103" target="117" edge="1">
                    <mxGeometry relative="1" as="geometry"/>
                </mxCell>
                <mxCell id="103" value="&lt;font style=&quot;font-size: 18px&quot;&gt;LINE_OPEN&lt;/font&gt;" style="ellipse;whiteSpace=wrap;html=1;strokeColor=#314354;fillColor=#647687;fontColor=#ffffff;" parent="1" vertex="1">
                    <mxGeometry x="130" y="910" width="120" height="80" as="geometry"/>
                </mxCell>
                <mxCell id="117" value="&lt;span style=&quot;font-size: 18px&quot;&gt;LINE_BAD&lt;/span&gt;" style="ellipse;whiteSpace=wrap;html=1;strokeColor=#314354;fillColor=#647687;fontColor=#ffffff;" parent="1" vertex="1">
                    <mxGeometry x="330" y="910" width="120" height="80" as="geometry"/>
                </mxCell>
                <mxCell id="104" value="&lt;font style=&quot;font-size: 18px&quot;&gt;LINE_OK&lt;/font&gt;" style="ellipse;whiteSpace=wrap;html=1;strokeColor=#82b366;fillColor=#d5e8d4;gradientColor=#97d077;" parent="1" vertex="1">
                    <mxGeometry x="130" y="1070" width="120" height="80" as="geometry"/>
                </mxCell>
                <mxCell id="106" value="&lt;font style=&quot;font-size: 16px&quot;&gt;读取到&lt;br&gt;\r\n&lt;br&gt;字符&lt;/font&gt;" style="text;strokeColor=none;fillColor=none;html=1;fontSize=24;fontStyle=1;verticalAlign=middle;align=center;" parent="1" vertex="1">
                    <mxGeometry x="110" y="997.5" width="100" height="65" as="geometry"/>
                </mxCell>
                <mxCell id="107" value="&lt;font style=&quot;font-size: 16px&quot;&gt;新数据&lt;br&gt;到达&lt;/font&gt;" style="text;strokeColor=none;fillColor=none;html=1;fontSize=24;fontStyle=1;verticalAlign=middle;align=center;" parent="1" vertex="1">
                    <mxGeometry x="180" y="1010" width="100" height="40" as="geometry"/>
                </mxCell>
                <mxCell id="110" value="" style="endArrow=classic;html=1;exitX=0.583;exitY=0;exitDx=0;exitDy=0;exitPerimeter=0;" parent="1" source="104" edge="1">
                    <mxGeometry width="50" height="50" relative="1" as="geometry">
                        <mxPoint x="202.80000000000024" y="1060" as="sourcePoint"/>
                        <mxPoint x="200.00000000000006" y="990" as="targetPoint"/>
                    </mxGeometry>
                </mxCell>
                <mxCell id="111" value="" style="endArrow=classic;html=1;exitX=0.8;exitY=-0.038;exitDx=0;exitDy=0;exitPerimeter=0;entryX=0.5;entryY=0;entryDx=0;entryDy=0;" parent="1" source="106" target="104" edge="1">
                    <mxGeometry width="50" height="50" relative="1" as="geometry">
                        <mxPoint x="225.24000000000024" y="1086" as="sourcePoint"/>
                        <mxPoint x="222.44000000000005" y="1016" as="targetPoint"/>
                    </mxGeometry>
                </mxCell>
                <mxCell id="115" value="&lt;font style=&quot;font-size: 16px&quot;&gt;报文语&lt;br&gt;法错误&lt;/font&gt;" style="text;strokeColor=none;fillColor=none;html=1;fontSize=24;fontStyle=1;verticalAlign=middle;align=center;" parent="1" vertex="1">
                    <mxGeometry x="240" y="930" width="100" height="40" as="geometry"/>
                </mxCell>
                <mxCell id="119" value="&lt;font style=&quot;font-size: 18px&quot;&gt;parse_line&lt;/font&gt;" style="rounded=1;whiteSpace=wrap;html=1;strokeColor=#3A5431;fillColor=#6d8764;fontColor=#ffffff;" parent="1" vertex="1">
                    <mxGeometry x="330" y="1070" width="120" height="60" as="geometry"/>
                </mxCell>
                <mxCell id="120" value="&lt;font color=&quot;#ff66ff&quot;&gt;从状态机&lt;/font&gt;" style="text;strokeColor=none;fillColor=none;html=1;fontSize=24;fontStyle=1;verticalAlign=middle;align=center;" parent="1" vertex="1">
                    <mxGeometry x="330" y="1022.5" width="100" height="40" as="geometry"/>
                </mxCell>
                <mxCell id="124" value="&lt;font style=&quot;font-size: 16px&quot;&gt;读取&lt;br&gt;一行&lt;br&gt;数据&lt;/font&gt;" style="text;strokeColor=none;fillColor=none;html=1;fontSize=24;fontStyle=1;verticalAlign=middle;align=center;" parent="1" vertex="1">
                    <mxGeometry x="220" y="790" width="40" height="60" as="geometry"/>
                </mxCell>
                <mxCell id="125" value="&lt;font style=&quot;font-size: 16px&quot;&gt;LINK_OK&lt;/font&gt;" style="text;strokeColor=none;fillColor=none;html=1;fontSize=24;fontStyle=1;verticalAlign=middle;align=center;" parent="1" vertex="1">
                    <mxGeometry x="280" y="800" width="80" height="30" as="geometry"/>
                </mxCell>
                <mxCell id="148" value="&lt;font style=&quot;font-size: 18px&quot;&gt;CHECK_STAT_REQUESTLINE&lt;/font&gt;" style="ellipse;whiteSpace=wrap;html=1;strokeColor=#3A5431;fillColor=#6d8764;fontColor=#ffffff;" parent="1" vertex="1">
                    <mxGeometry x="1420" y="650" width="340" height="120" as="geometry"/>
                </mxCell>
                <mxCell id="149" value="" style="edgeStyle=orthogonalEdgeStyle;rounded=0;orthogonalLoop=1;jettySize=auto;html=1;" parent="1" source="150" target="148" edge="1">
                    <mxGeometry relative="1" as="geometry"/>
                </mxCell>
                <mxCell id="150" value="" style="rounded=1;whiteSpace=wrap;html=1;strokeColor=#432D57;fillColor=#76608a;fontColor=#ffffff;" parent="1" vertex="1">
                    <mxGeometry x="1390" y="880" width="400" height="290" as="geometry"/>
                </mxCell>
                <mxCell id="151" value="" style="edgeStyle=orthogonalEdgeStyle;rounded=0;orthogonalLoop=1;jettySize=auto;html=1;" parent="1" source="152" target="153" edge="1">
                    <mxGeometry relative="1" as="geometry"/>
                </mxCell>
                <mxCell id="152" value="&lt;font style=&quot;font-size: 18px&quot;&gt;LINE_OPEN&lt;/font&gt;" style="ellipse;whiteSpace=wrap;html=1;strokeColor=#314354;fillColor=#647687;fontColor=#ffffff;" parent="1" vertex="1">
                    <mxGeometry x="1450" y="920" width="120" height="80" as="geometry"/>
                </mxCell>
                <mxCell id="153" value="&lt;span style=&quot;font-size: 18px&quot;&gt;LINE_BAD&lt;/span&gt;" style="ellipse;whiteSpace=wrap;html=1;strokeColor=#314354;fillColor=#647687;fontColor=#ffffff;" parent="1" vertex="1">
                    <mxGeometry x="1650" y="920" width="120" height="80" as="geometry"/>
                </mxCell>
                <mxCell id="154" value="&lt;font style=&quot;font-size: 18px&quot;&gt;LINE_OK&lt;/font&gt;" style="ellipse;whiteSpace=wrap;html=1;strokeColor=#82b366;fillColor=#d5e8d4;gradientColor=#97d077;" parent="1" vertex="1">
                    <mxGeometry x="1450" y="1080" width="120" height="80" as="geometry"/>
                </mxCell>
                <mxCell id="155" value="&lt;font style=&quot;font-size: 16px&quot;&gt;读取到&lt;br&gt;\r\n&lt;br&gt;字符&lt;/font&gt;" style="text;strokeColor=none;fillColor=none;html=1;fontSize=24;fontStyle=1;verticalAlign=middle;align=center;" parent="1" vertex="1">
                    <mxGeometry x="1430" y="1007.5" width="100" height="65" as="geometry"/>
                </mxCell>
                <mxCell id="156" value="&lt;font style=&quot;font-size: 16px&quot;&gt;新数据&lt;br&gt;到达&lt;/font&gt;" style="text;strokeColor=none;fillColor=none;html=1;fontSize=24;fontStyle=1;verticalAlign=middle;align=center;" parent="1" vertex="1">
                    <mxGeometry x="1500" y="1020" width="100" height="40" as="geometry"/>
                </mxCell>
                <mxCell id="157" value="" style="endArrow=classic;html=1;exitX=0.583;exitY=0;exitDx=0;exitDy=0;exitPerimeter=0;" parent="1" source="154" edge="1">
                    <mxGeometry width="50" height="50" relative="1" as="geometry">
                        <mxPoint x="1522.8000000000002" y="1070" as="sourcePoint"/>
                        <mxPoint x="1520" y="1000" as="targetPoint"/>
                    </mxGeometry>
                </mxCell>
                <mxCell id="158" value="" style="endArrow=classic;html=1;exitX=0.8;exitY=-0.038;exitDx=0;exitDy=0;exitPerimeter=0;entryX=0.5;entryY=0;entryDx=0;entryDy=0;" parent="1" source="155" target="154" edge="1">
                    <mxGeometry width="50" height="50" relative="1" as="geometry">
                        <mxPoint x="1545.2400000000002" y="1096" as="sourcePoint"/>
                        <mxPoint x="1542.44" y="1026" as="targetPoint"/>
                    </mxGeometry>
                </mxCell>
                <mxCell id="159" value="&lt;font style=&quot;font-size: 16px&quot;&gt;报文语&lt;br&gt;法错误&lt;/font&gt;" style="text;strokeColor=none;fillColor=none;html=1;fontSize=24;fontStyle=1;verticalAlign=middle;align=center;" parent="1" vertex="1">
                    <mxGeometry x="1560" y="940" width="100" height="40" as="geometry"/>
                </mxCell>
                <mxCell id="160" value="parse_line" style="rounded=1;whiteSpace=wrap;html=1;strokeColor=#3A5431;fillColor=#6d8764;fontColor=#ffffff;" parent="1" vertex="1">
                    <mxGeometry x="1650" y="1080" width="120" height="60" as="geometry"/>
                </mxCell>
                <mxCell id="161" value="&lt;font color=&quot;#ff66ff&quot;&gt;从状态机&lt;/font&gt;" style="text;strokeColor=none;fillColor=none;html=1;fontSize=24;fontStyle=1;verticalAlign=middle;align=center;" parent="1" vertex="1">
                    <mxGeometry x="1650" y="1032.5" width="100" height="40" as="geometry"/>
                </mxCell>
                <mxCell id="164" value="&lt;font style=&quot;font-size: 16px&quot;&gt;读取&lt;br&gt;一行&lt;br&gt;数据&lt;/font&gt;" style="text;strokeColor=none;fillColor=none;html=1;fontSize=24;fontStyle=1;verticalAlign=middle;align=center;" parent="1" vertex="1">
                    <mxGeometry x="1540" y="800" width="40" height="60" as="geometry"/>
                </mxCell>
                <mxCell id="165" value="&lt;font style=&quot;font-size: 16px&quot;&gt;LINK_OK&lt;/font&gt;" style="text;strokeColor=none;fillColor=none;html=1;fontSize=24;fontStyle=1;verticalAlign=middle;align=center;" parent="1" vertex="1">
                    <mxGeometry x="1600" y="810" width="80" height="30" as="geometry"/>
                </mxCell>
                <mxCell id="186" value="&lt;font style=&quot;font-size: 18px&quot;&gt;CHECK_STAT_HEADER&lt;/font&gt;" style="ellipse;whiteSpace=wrap;html=1;strokeColor=#3A5431;fillColor=#6d8764;fontColor=#ffffff;" parent="1" vertex="1">
                    <mxGeometry x="770" y="650" width="340" height="120" as="geometry"/>
                </mxCell>
                <mxCell id="187" value="" style="edgeStyle=orthogonalEdgeStyle;rounded=0;orthogonalLoop=1;jettySize=auto;html=1;" parent="1" source="188" target="186" edge="1">
                    <mxGeometry relative="1" as="geometry"/>
                </mxCell>
                <mxCell id="188" value="&lt;br&gt;&lt;br&gt;" style="rounded=1;whiteSpace=wrap;html=1;strokeColor=#432D57;fillColor=#76608a;fontColor=#ffffff;" parent="1" vertex="1">
                    <mxGeometry x="741" y="880" width="400" height="290" as="geometry"/>
                </mxCell>
                <mxCell id="189" value="" style="edgeStyle=orthogonalEdgeStyle;rounded=0;orthogonalLoop=1;jettySize=auto;html=1;" parent="1" source="190" target="191" edge="1">
                    <mxGeometry relative="1" as="geometry"/>
                </mxCell>
                <mxCell id="190" value="&lt;font style=&quot;font-size: 18px&quot;&gt;LINE_OPEN&lt;/font&gt;" style="ellipse;whiteSpace=wrap;html=1;strokeColor=#314354;fillColor=#647687;fontColor=#ffffff;" parent="1" vertex="1">
                    <mxGeometry x="800" y="920" width="120" height="80" as="geometry"/>
                </mxCell>
                <mxCell id="191" value="&lt;span style=&quot;font-size: 18px&quot;&gt;LINE_BAD&lt;/span&gt;" style="ellipse;whiteSpace=wrap;html=1;strokeColor=#314354;fillColor=#647687;fontColor=#ffffff;" parent="1" vertex="1">
                    <mxGeometry x="1000" y="920" width="120" height="80" as="geometry"/>
                </mxCell>
                <mxCell id="192" value="&lt;font style=&quot;font-size: 18px&quot;&gt;LINE_OK&lt;/font&gt;" style="ellipse;whiteSpace=wrap;html=1;strokeColor=#82b366;fillColor=#d5e8d4;gradientColor=#97d077;" parent="1" vertex="1">
                    <mxGeometry x="800" y="1080" width="120" height="80" as="geometry"/>
                </mxCell>
                <mxCell id="193" value="&lt;font style=&quot;font-size: 16px&quot;&gt;读取到&lt;br&gt;\r\n&lt;br&gt;字符&lt;/font&gt;" style="text;strokeColor=none;fillColor=none;html=1;fontSize=24;fontStyle=1;verticalAlign=middle;align=center;" parent="1" vertex="1">
                    <mxGeometry x="780" y="1007.5" width="100" height="65" as="geometry"/>
                </mxCell>
                <mxCell id="194" value="&lt;font style=&quot;font-size: 16px&quot;&gt;新数据&lt;br&gt;到达&lt;/font&gt;" style="text;strokeColor=none;fillColor=none;html=1;fontSize=24;fontStyle=1;verticalAlign=middle;align=center;" parent="1" vertex="1">
                    <mxGeometry x="850" y="1020" width="100" height="40" as="geometry"/>
                </mxCell>
                <mxCell id="195" value="" style="endArrow=classic;html=1;exitX=0.583;exitY=0;exitDx=0;exitDy=0;exitPerimeter=0;" parent="1" source="192" edge="1">
                    <mxGeometry width="50" height="50" relative="1" as="geometry">
                        <mxPoint x="872.8000000000002" y="1070" as="sourcePoint"/>
                        <mxPoint x="870" y="1000" as="targetPoint"/>
                    </mxGeometry>
                </mxCell>
                <mxCell id="196" value="" style="endArrow=classic;html=1;exitX=0.8;exitY=-0.038;exitDx=0;exitDy=0;exitPerimeter=0;entryX=0.5;entryY=0;entryDx=0;entryDy=0;" parent="1" source="193" target="192" edge="1">
                    <mxGeometry width="50" height="50" relative="1" as="geometry">
                        <mxPoint x="895.2400000000002" y="1096" as="sourcePoint"/>
                        <mxPoint x="892.44" y="1026" as="targetPoint"/>
                    </mxGeometry>
                </mxCell>
                <mxCell id="197" value="&lt;font style=&quot;font-size: 16px&quot;&gt;报文语&lt;br&gt;法错误&lt;/font&gt;" style="text;strokeColor=none;fillColor=none;html=1;fontSize=24;fontStyle=1;verticalAlign=middle;align=center;" parent="1" vertex="1">
                    <mxGeometry x="910" y="940" width="100" height="40" as="geometry"/>
                </mxCell>
                <mxCell id="198" value="parse_line" style="rounded=1;whiteSpace=wrap;html=1;strokeColor=#3A5431;fillColor=#6d8764;fontColor=#ffffff;" parent="1" vertex="1">
                    <mxGeometry x="1000" y="1080" width="120" height="60" as="geometry"/>
                </mxCell>
                <mxCell id="199" value="&lt;font color=&quot;#ff66ff&quot;&gt;从状态机&lt;/font&gt;" style="text;strokeColor=none;fillColor=none;html=1;fontSize=24;fontStyle=1;verticalAlign=middle;align=center;" parent="1" vertex="1">
                    <mxGeometry x="1000" y="1032.5" width="100" height="40" as="geometry"/>
                </mxCell>
                <mxCell id="200" value="Title" style="text;strokeColor=none;fillColor=none;html=1;fontSize=24;fontStyle=1;verticalAlign=middle;align=center;" parent="1" vertex="1">
                    <mxGeometry x="1020" y="920" width="100" height="40" as="geometry"/>
                </mxCell>
                <mxCell id="201" value="Title" style="text;strokeColor=none;fillColor=none;html=1;fontSize=24;fontStyle=1;verticalAlign=middle;align=center;" parent="1" vertex="1">
                    <mxGeometry x="1020" y="920" width="100" height="40" as="geometry"/>
                </mxCell>
                <mxCell id="202" value="&lt;font style=&quot;font-size: 16px&quot;&gt;读取&lt;br&gt;一行&lt;br&gt;数据&lt;/font&gt;" style="text;strokeColor=none;fillColor=none;html=1;fontSize=24;fontStyle=1;verticalAlign=middle;align=center;" parent="1" vertex="1">
                    <mxGeometry x="890" y="810" width="40" height="60" as="geometry"/>
                </mxCell>
                <mxCell id="203" value="&lt;font style=&quot;font-size: 16px&quot;&gt;LINK_OK&lt;/font&gt;" style="text;strokeColor=none;fillColor=none;html=1;fontSize=24;fontStyle=1;verticalAlign=middle;align=center;" parent="1" vertex="1">
                    <mxGeometry x="950" y="820" width="80" height="30" as="geometry"/>
                </mxCell>
                <mxCell id="204" value="&lt;font style=&quot;font-size: 18px&quot;&gt;parse_request_line()函数&lt;/font&gt;" style="rounded=0;whiteSpace=wrap;html=1;strokeColor=#6D1F00;fillColor=#a0522d;fontColor=#ffffff;" parent="1" vertex="1">
                    <mxGeometry x="491" y="790" width="229" height="50" as="geometry"/>
                </mxCell>
                <mxCell id="208" value="&lt;span style=&quot;font-size: 18px&quot;&gt;parse_headers()函数&lt;/span&gt;" style="rounded=0;whiteSpace=wrap;html=1;strokeColor=#6D1F00;fillColor=#a0522d;fontColor=#ffffff;" parent="1" vertex="1">
                    <mxGeometry x="1160" y="795" width="229" height="50" as="geometry"/>
                </mxCell>
                <mxCell id="205" value="" style="endArrow=classic;html=1;exitX=1;exitY=0.5;exitDx=0;exitDy=0;entryX=0.25;entryY=0;entryDx=0;entryDy=0;" parent="1" source="96" target="204" edge="1">
                    <mxGeometry width="50" height="50" relative="1" as="geometry">
                        <mxPoint x="650" y="920" as="sourcePoint"/>
                        <mxPoint x="550" y="780" as="targetPoint"/>
                    </mxGeometry>
                </mxCell>
                <mxCell id="206" value="" style="endArrow=classic;html=1;exitX=0.75;exitY=0;exitDx=0;exitDy=0;entryX=0;entryY=0.5;entryDx=0;entryDy=0;" parent="1" source="204" target="186" edge="1">
                    <mxGeometry width="50" height="50" relative="1" as="geometry">
                        <mxPoint x="539.9999999999991" y="700" as="sourcePoint"/>
                        <mxPoint x="648.25" y="780" as="targetPoint"/>
                    </mxGeometry>
                </mxCell>
                <mxCell id="210" value="" style="endArrow=classic;html=1;exitX=1;exitY=0.5;exitDx=0;exitDy=0;entryX=0.25;entryY=0;entryDx=0;entryDy=0;" parent="1" source="186" target="208" edge="1">
                    <mxGeometry width="50" height="50" relative="1" as="geometry">
                        <mxPoint x="1250" y="850" as="sourcePoint"/>
                        <mxPoint x="1220" y="790" as="targetPoint"/>
                    </mxGeometry>
                </mxCell>
                <mxCell id="212" value="" style="endArrow=classic;html=1;exitX=0.75;exitY=0;exitDx=0;exitDy=0;entryX=0;entryY=0.5;entryDx=0;entryDy=0;" parent="1" source="208" target="148" edge="1">
                    <mxGeometry width="50" height="50" relative="1" as="geometry">
                        <mxPoint x="1130" y="730" as="sourcePoint"/>
                        <mxPoint x="1240" y="810" as="targetPoint"/>
                    </mxGeometry>
                </mxCell>
                <mxCell id="213" value="&lt;font style=&quot;font-size: 18px&quot;&gt;解析请求头&lt;/font&gt;" style="text;strokeColor=none;fillColor=none;html=1;fontSize=24;fontStyle=1;verticalAlign=middle;align=center;rotation=40;" parent="1" vertex="1">
                    <mxGeometry x="1124" y="718" width="100" height="40" as="geometry"/>
                </mxCell>
                <mxCell id="214" value="&lt;font style=&quot;font-size: 18px&quot;&gt;解析完成&lt;/font&gt;" style="text;strokeColor=none;fillColor=none;html=1;fontSize=24;fontStyle=1;verticalAlign=middle;align=center;rotation=-45;" parent="1" vertex="1">
                    <mxGeometry x="1303" y="723" width="100" height="40" as="geometry"/>
                </mxCell>
                <mxCell id="216" value="&lt;font style=&quot;font-size: 18px&quot;&gt;POST请求&lt;/font&gt;" style="text;strokeColor=none;fillColor=none;html=1;fontSize=24;fontStyle=1;verticalAlign=middle;align=center;rotation=-45;" parent="1" vertex="1">
                    <mxGeometry x="1340" y="740" width="100" height="40" as="geometry"/>
                </mxCell>
                <mxCell id="218" value="&lt;font color=&quot;#000000&quot; style=&quot;font-size: 20px&quot;&gt;do_request()函数&lt;/font&gt;" style="rounded=1;whiteSpace=wrap;html=1;fillColor=#b1ddf0;strokeColor=#10739e;" parent="1" vertex="1">
                    <mxGeometry x="1250" y="480" width="630" height="40" as="geometry"/>
                </mxCell>
                <mxCell id="219" value="" style="endArrow=classic;html=1;exitX=0.5;exitY=0;exitDx=0;exitDy=0;entryX=0.045;entryY=0.997;entryDx=0;entryDy=0;entryPerimeter=0;" parent="1" source="208" target="218" edge="1">
                    <mxGeometry width="50" height="50" relative="1" as="geometry">
                        <mxPoint x="1360" y="720" as="sourcePoint"/>
                        <mxPoint x="1410" y="670" as="targetPoint"/>
                    </mxGeometry>
                </mxCell>
                <mxCell id="220" value="&lt;font style=&quot;font-size: 18px&quot; color=&quot;#000000&quot;&gt;parse_content()函数&lt;/font&gt;" style="rounded=0;whiteSpace=wrap;html=1;strokeColor=#6D1F00;fillColor=#a0522d;fontColor=#ffffff;" parent="1" vertex="1">
                    <mxGeometry x="1720" y="785" width="180" height="60" as="geometry"/>
                </mxCell>
                <mxCell id="221" value="" style="endArrow=classic;html=1;exitX=1;exitY=0.5;exitDx=0;exitDy=0;entryX=0.52;entryY=0.021;entryDx=0;entryDy=0;entryPerimeter=0;" parent="1" source="148" target="220" edge="1">
                    <mxGeometry width="50" height="50" relative="1" as="geometry">
                        <mxPoint x="1530" y="690" as="sourcePoint"/>
                        <mxPoint x="1580" y="640" as="targetPoint"/>
                    </mxGeometry>
                </mxCell>
                <mxCell id="223" value="&lt;font style=&quot;font-size: 16px&quot;&gt;解析消息体&lt;/font&gt;" style="text;strokeColor=none;fillColor=none;html=1;fontSize=24;fontStyle=1;verticalAlign=middle;align=center;rotation=55;" parent="1" vertex="1">
                    <mxGeometry x="1760" y="718" width="100" height="40" as="geometry"/>
                </mxCell>
                <mxCell id="224" value="解析&lt;br&gt;完成" style="text;strokeColor=none;fillColor=none;html=1;fontSize=24;fontStyle=1;verticalAlign=middle;align=center;" parent="1" vertex="1">
                    <mxGeometry x="1201" y="650" width="59" height="60" as="geometry"/>
                </mxCell>
                <mxCell id="225" value="GET&lt;br&gt;请求" style="text;strokeColor=none;fillColor=none;html=1;fontSize=24;fontStyle=1;verticalAlign=middle;align=center;" parent="1" vertex="1">
                    <mxGeometry x="1270" y="660" width="100" height="40" as="geometry"/>
                </mxCell>
                <mxCell id="226" value="" style="endArrow=classic;html=1;exitX=0.721;exitY=0.008;exitDx=0;exitDy=0;entryX=0.952;entryY=1.096;entryDx=0;entryDy=0;entryPerimeter=0;exitPerimeter=0;" parent="1" source="220" target="218" edge="1">
                    <mxGeometry width="50" height="50" relative="1" as="geometry">
                        <mxPoint x="1700" y="780" as="sourcePoint"/>
                        <mxPoint x="1750" y="730" as="targetPoint"/>
                    </mxGeometry>
                </mxCell>
                <mxCell id="227" value="完成&lt;br&gt;解析" style="text;strokeColor=none;fillColor=none;html=1;fontSize=24;fontStyle=1;verticalAlign=middle;align=center;" parent="1" vertex="1">
                    <mxGeometry x="1770" y="630" width="100" height="40" as="geometry"/>
                </mxCell>
                <mxCell id="229" value="GET&lt;br&gt;请求" style="text;strokeColor=none;fillColor=none;html=1;fontSize=24;fontStyle=1;verticalAlign=middle;align=center;" parent="1" vertex="1">
                    <mxGeometry x="1830" y="626" width="90" height="44" as="geometry"/>
                </mxCell>
                <mxCell id="235" value="" style="edgeStyle=orthogonalEdgeStyle;rounded=0;orthogonalLoop=1;jettySize=auto;html=1;" parent="1" source="230" target="234" edge="1">
                    <mxGeometry relative="1" as="geometry"/>
                </mxCell>
                <mxCell id="230" value="Process" style="rounded=0;whiteSpace=wrap;html=1;fillColor=#76608a;strokeColor=#432D57;fontColor=#ffffff;" parent="1" vertex="1">
                    <mxGeometry x="737" y="1380" width="120" height="60" as="geometry"/>
                </mxCell>
                <mxCell id="351" value="" style="edgeStyle=elbowEdgeStyle;rounded=0;orthogonalLoop=1;jettySize=auto;elbow=vertical;html=1;shadow=1;strokeColor=#FFFDFC;" parent="1" target="230" edge="1">
                    <mxGeometry relative="1" as="geometry">
                        <mxPoint x="797" y="1300" as="sourcePoint"/>
                    </mxGeometry>
                </mxCell>
                <mxCell id="234" value="process_read" style="rounded=0;whiteSpace=wrap;html=1;fillColor=#76608a;strokeColor=#432D57;fontColor=#ffffff;" parent="1" vertex="1">
                    <mxGeometry x="737" y="1520" width="120" height="60" as="geometry"/>
                </mxCell>
                <mxCell id="239" value="" style="endArrow=classic;html=1;entryX=0.229;entryY=-0.01;entryDx=0;entryDy=0;entryPerimeter=0;" parent="1" edge="1">
                    <mxGeometry width="50" height="50" relative="1" as="geometry">
                        <mxPoint x="798" y="1581" as="sourcePoint"/>
                        <mxPoint x="798.37" y="1607.9" as="targetPoint"/>
                    </mxGeometry>
                </mxCell>
                <mxCell id="240" value="&lt;div style=&quot;background-color: rgb(30 , 30 , 30) ; line-height: 27px&quot;&gt;&lt;div style=&quot;line-height: 27px&quot;&gt;&lt;font face=&quot;Times New Roman&quot; color=&quot;#00ff00&quot;&gt;CHECK_STATE_REQUESTLINE&lt;/font&gt;&lt;/div&gt;&lt;/div&gt;" style="ellipse;whiteSpace=wrap;html=1;fillColor=#6a00ff;strokeColor=#3700CC;fontColor=#ffffff;" parent="1" vertex="1">
                    <mxGeometry x="378" y="1903.5" width="220" height="40" as="geometry"/>
                </mxCell>
                <mxCell id="267" value="" style="edgeStyle=orthogonalEdgeStyle;rounded=0;orthogonalLoop=1;jettySize=auto;html=1;" parent="1" source="253" target="258" edge="1">
                    <mxGeometry relative="1" as="geometry"/>
                </mxCell>
                <mxCell id="253" value="&lt;div style=&quot;background-color: rgb(30 , 30 , 30) ; line-height: 27px&quot;&gt;&lt;div style=&quot;line-height: 27px&quot;&gt;&lt;font face=&quot;Times New Roman&quot; color=&quot;#00ff00&quot;&gt;CHECK_STATE_HEADERS&lt;/font&gt;&lt;/div&gt;&lt;/div&gt;" style="ellipse;whiteSpace=wrap;html=1;fillColor=#6a00ff;strokeColor=#3700CC;fontColor=#ffffff;" parent="1" vertex="1">
                    <mxGeometry x="698" y="1903.5" width="220" height="40" as="geometry"/>
                </mxCell>
                <mxCell id="250" value="" style="edgeStyle=elbowEdgeStyle;elbow=horizontal;endArrow=classic;html=1;exitX=1;exitY=0.5;exitDx=0;exitDy=0;entryX=1;entryY=0.5;entryDx=0;entryDy=0;" parent="1" source="244" target="240" edge="1">
                    <mxGeometry width="50" height="50" relative="1" as="geometry">
                        <mxPoint x="528" y="2113.5" as="sourcePoint"/>
                        <mxPoint x="888" y="1663.5" as="targetPoint"/>
                        <Array as="points">
                            <mxPoint x="618" y="1943.5"/>
                        </Array>
                    </mxGeometry>
                </mxCell>
                <mxCell id="251" value="&lt;font style=&quot;font-size: 12px&quot;&gt;BAD_REQUEST&lt;/font&gt;" style="text;strokeColor=none;fillColor=none;html=1;fontSize=24;fontStyle=1;verticalAlign=middle;align=center;" parent="1" vertex="1">
                    <mxGeometry x="315" y="1953.5" width="100" height="40" as="geometry"/>
                </mxCell>
                <mxCell id="252" value="" style="edgeStyle=elbowEdgeStyle;elbow=horizontal;endArrow=classic;html=1;entryX=0;entryY=0.5;entryDx=0;entryDy=0;exitX=0;exitY=0.5;exitDx=0;exitDy=0;" parent="1" source="244" target="240" edge="1">
                    <mxGeometry width="50" height="50" relative="1" as="geometry">
                        <mxPoint x="488" y="2083.5" as="sourcePoint"/>
                        <mxPoint x="548" y="1783.5" as="targetPoint"/>
                        <Array as="points">
                            <mxPoint x="348" y="1993.5"/>
                            <mxPoint x="368" y="2023.5"/>
                        </Array>
                    </mxGeometry>
                </mxCell>
                <mxCell id="244" value="parse_request_line&lt;br&gt;获取&lt;br&gt;请求方法&lt;br&gt;url&lt;br&gt;http版本号" style="rounded=0;whiteSpace=wrap;html=1;fillColor=#76608a;strokeColor=#432D57;fontColor=#ffffff;" parent="1" vertex="1">
                    <mxGeometry x="428" y="1993.5" width="120" height="70" as="geometry"/>
                </mxCell>
                <mxCell id="255" value="" style="edgeStyle=orthogonalEdgeStyle;rounded=0;orthogonalLoop=1;jettySize=auto;html=1;" parent="1" source="240" target="244" edge="1">
                    <mxGeometry relative="1" as="geometry">
                        <mxPoint x="488" y="1943.5" as="sourcePoint"/>
                        <mxPoint x="488" y="2153.5" as="targetPoint"/>
                    </mxGeometry>
                </mxCell>
                <mxCell id="258" value="parse_headers()函数&lt;br&gt;解析头部或则空行&lt;br&gt;获取&lt;br&gt;Connection&lt;br&gt;Keep_alive&lt;br&gt;Content_length&lt;br&gt;Host" style="rounded=0;whiteSpace=wrap;html=1;fillColor=#76608a;strokeColor=#432D57;fontColor=#ffffff;" parent="1" vertex="1">
                    <mxGeometry x="748" y="1998" width="120" height="95.5" as="geometry"/>
                </mxCell>
                <mxCell id="264" value="&lt;font style=&quot;font-size: 12px&quot;&gt;NO_REQUEST&lt;/font&gt;" style="text;strokeColor=none;fillColor=none;html=1;fontSize=24;fontStyle=1;verticalAlign=middle;align=center;" parent="1" vertex="1">
                    <mxGeometry x="588" y="1943.5" width="100" height="40" as="geometry"/>
                </mxCell>
                <mxCell id="270" value="" style="edgeStyle=elbowEdgeStyle;elbow=vertical;endArrow=classic;html=1;exitX=-0.014;exitY=0.582;exitDx=0;exitDy=0;exitPerimeter=0;entryX=0;entryY=1;entryDx=0;entryDy=0;" parent="1" source="258" target="253" edge="1">
                    <mxGeometry width="50" height="50" relative="1" as="geometry">
                        <mxPoint x="678" y="1833.5" as="sourcePoint"/>
                        <mxPoint x="728" y="1783.5" as="targetPoint"/>
                        <Array as="points">
                            <mxPoint x="730" y="2053.5"/>
                            <mxPoint x="728" y="2033.5"/>
                        </Array>
                    </mxGeometry>
                </mxCell>
                <mxCell id="271" value="&lt;span style=&quot;font-size: 12px&quot;&gt;GET_REQUEST&lt;/span&gt;" style="text;strokeColor=none;fillColor=none;html=1;fontSize=24;fontStyle=1;verticalAlign=middle;align=center;" parent="1" vertex="1">
                    <mxGeometry x="839" y="1943.5" width="100" height="40" as="geometry"/>
                </mxCell>
                <mxCell id="272" value="" style="edgeStyle=elbowEdgeStyle;elbow=horizontal;endArrow=classic;html=1;exitX=1.004;exitY=0.475;exitDx=0;exitDy=0;exitPerimeter=0;entryX=1;entryY=0.5;entryDx=0;entryDy=0;" parent="1" source="258" edge="1">
                    <mxGeometry width="50" height="50" relative="1" as="geometry">
                        <mxPoint x="868.0000000000001" y="2048.1375" as="sourcePoint"/>
                        <mxPoint x="917.6399999999968" y="1923.5" as="targetPoint"/>
                        <Array as="points">
                            <mxPoint x="937.64" y="1993.5"/>
                        </Array>
                    </mxGeometry>
                </mxCell>
                <mxCell id="274" value="&lt;font style=&quot;font-size: 12px&quot;&gt;NO_REQUEST&lt;/font&gt;" style="text;strokeColor=none;fillColor=none;html=1;fontSize=24;fontStyle=1;verticalAlign=middle;align=center;" parent="1" vertex="1">
                    <mxGeometry x="698" y="1958" width="100" height="40" as="geometry"/>
                </mxCell>
                <mxCell id="286" value="" style="edgeStyle=orthogonalEdgeStyle;rounded=0;orthogonalLoop=1;jettySize=auto;html=1;strokeColor=#FFFDFC;" parent="1" source="276" target="285" edge="1">
                    <mxGeometry relative="1" as="geometry"/>
                </mxCell>
                <mxCell id="276" value="&lt;div style=&quot;background-color: rgb(30 , 30 , 30) ; line-height: 27px&quot;&gt;&lt;div style=&quot;line-height: 27px&quot;&gt;&lt;font face=&quot;Times New Roman&quot; color=&quot;#00ff00&quot;&gt;CHECK_STATE_CONTENT&lt;/font&gt;&lt;/div&gt;&lt;/div&gt;" style="ellipse;whiteSpace=wrap;html=1;fillColor=#6a00ff;strokeColor=#3700CC;fontColor=#ffffff;" parent="1" vertex="1">
                    <mxGeometry x="969" y="1890" width="220" height="67" as="geometry"/>
                </mxCell>
                <mxCell id="280" value="" style="endArrow=classic;html=1;strokeColor=#FF0000;exitX=1;exitY=0.5;exitDx=0;exitDy=0;entryX=0.233;entryY=0;entryDx=0;entryDy=0;entryPerimeter=0;" parent="1" source="253" target="282" edge="1">
                    <mxGeometry width="50" height="50" relative="1" as="geometry">
                        <mxPoint x="958" y="1773.5" as="sourcePoint"/>
                        <mxPoint x="918" y="1863.5" as="targetPoint"/>
                    </mxGeometry>
                </mxCell>
                <mxCell id="282" value="&lt;font style=&quot;font-size: 24px&quot;&gt;do_request()&lt;/font&gt;" style="rounded=0;whiteSpace=wrap;html=1;fillColor=#76608a;strokeColor=#432D57;fontColor=#ffffff;" parent="1" vertex="1">
                    <mxGeometry x="818" y="2183.5" width="430" height="60" as="geometry"/>
                </mxCell>
                <mxCell id="285" value="parse_content()函数" style="rounded=0;whiteSpace=wrap;html=1;fillColor=#76608a;strokeColor=#432D57;fontColor=#ffffff;" parent="1" vertex="1">
                    <mxGeometry x="1018" y="2003.5" width="121" height="90" as="geometry"/>
                </mxCell>
                <mxCell id="287" value="" style="edgeStyle=elbowEdgeStyle;elbow=vertical;endArrow=classic;html=1;strokeColor=#FFFDFC;exitX=-0.024;exitY=0.554;exitDx=0;exitDy=0;exitPerimeter=0;" parent="1" source="285" edge="1">
                    <mxGeometry width="50" height="50" relative="1" as="geometry">
                        <mxPoint x="899" y="2133.5" as="sourcePoint"/>
                        <mxPoint x="968" y="1923.5" as="targetPoint"/>
                        <Array as="points">
                            <mxPoint x="978" y="2053.5"/>
                        </Array>
                    </mxGeometry>
                </mxCell>
                <mxCell id="289" value="&lt;font style=&quot;font-size: 12px&quot;&gt;GET_REQUEST&lt;/font&gt;" style="text;strokeColor=none;fillColor=none;html=1;fontSize=24;fontStyle=1;verticalAlign=middle;align=center;" parent="1" vertex="1">
                    <mxGeometry x="1109" y="1958" width="100" height="40" as="geometry"/>
                </mxCell>
                <mxCell id="290" value="" style="edgeStyle=elbowEdgeStyle;elbow=vertical;endArrow=classic;html=1;strokeColor=#FFFDFC;exitX=1;exitY=0.5;exitDx=0;exitDy=0;entryX=0.998;entryY=0.569;entryDx=0;entryDy=0;entryPerimeter=0;" parent="1" source="285" target="276" edge="1">
                    <mxGeometry width="50" height="50" relative="1" as="geometry">
                        <mxPoint x="958" y="1843.5" as="sourcePoint"/>
                        <mxPoint x="1008" y="1793.5" as="targetPoint"/>
                        <Array as="points">
                            <mxPoint x="1208" y="2023.5"/>
                        </Array>
                    </mxGeometry>
                </mxCell>
                <mxCell id="291" value="&lt;font style=&quot;font-size: 12px&quot;&gt;NO_REQUEST&lt;/font&gt;" style="text;strokeColor=none;fillColor=none;html=1;fontSize=24;fontStyle=1;verticalAlign=middle;align=center;" parent="1" vertex="1">
                    <mxGeometry x="958" y="1958" width="100" height="40" as="geometry"/>
                </mxCell>
                <mxCell id="299" value="" style="edgeStyle=elbowEdgeStyle;elbow=horizontal;endArrow=classic;html=1;strokeColor=#FF66FF;entryX=0;entryY=0.5;entryDx=0;entryDy=0;" parent="1" target="276" edge="1">
                    <mxGeometry width="50" height="50" relative="1" as="geometry">
                        <mxPoint x="804" y="2143.5" as="sourcePoint"/>
                        <mxPoint x="964" y="1793.5" as="targetPoint"/>
                        <Array as="points">
                            <mxPoint x="948" y="2023.5"/>
                        </Array>
                    </mxGeometry>
                </mxCell>
                <mxCell id="300" value="" style="endArrow=none;html=1;strokeColor=#FF66FF;entryX=0.5;entryY=1;entryDx=0;entryDy=0;" parent="1" target="244" edge="1">
                    <mxGeometry width="50" height="50" relative="1" as="geometry">
                        <mxPoint x="488" y="2103.5" as="sourcePoint"/>
                        <mxPoint x="493" y="2063.5" as="targetPoint"/>
                    </mxGeometry>
                </mxCell>
                <mxCell id="301" value="" style="edgeStyle=elbowEdgeStyle;elbow=horizontal;endArrow=classic;html=1;strokeColor=#FF66FF;entryX=0;entryY=0.5;entryDx=0;entryDy=0;" parent="1" target="253" edge="1">
                    <mxGeometry width="50" height="50" relative="1" as="geometry">
                        <mxPoint x="488" y="2103.5" as="sourcePoint"/>
                        <mxPoint x="688" y="1843.5" as="targetPoint"/>
                        <Array as="points">
                            <mxPoint x="658" y="2003.5"/>
                        </Array>
                    </mxGeometry>
                </mxCell>
                <mxCell id="303" value="" style="endArrow=none;html=1;strokeColor=#FF66FF;exitX=0.476;exitY=0.999;exitDx=0;exitDy=0;exitPerimeter=0;" parent="1" source="258" edge="1">
                    <mxGeometry width="50" height="50" relative="1" as="geometry">
                        <mxPoint x="818" y="1893.5" as="sourcePoint"/>
                        <mxPoint x="805" y="2143.5" as="targetPoint"/>
                    </mxGeometry>
                </mxCell>
                <mxCell id="304" value="" style="endArrow=classic;html=1;strokeColor=#FF0000;exitX=1;exitY=0.5;exitDx=0;exitDy=0;entryX=0.861;entryY=-0.042;entryDx=0;entryDy=0;entryPerimeter=0;shadow=0;" parent="1" target="282" edge="1">
                    <mxGeometry width="50" height="50" relative="1" as="geometry">
                        <mxPoint x="1189" y="1923.5" as="sourcePoint"/>
                        <mxPoint x="1189" y="2173.5" as="targetPoint"/>
                    </mxGeometry>
                </mxCell>
                <mxCell id="306" value="&lt;font style=&quot;font-size: 18px&quot; color=&quot;#ff66ff&quot;&gt;状态转移&lt;/font&gt;" style="text;strokeColor=none;fillColor=none;html=1;fontSize=24;fontStyle=1;verticalAlign=middle;align=center;" parent="1" vertex="1">
                    <mxGeometry x="538" y="2113.5" width="100" height="40" as="geometry"/>
                </mxCell>
                <mxCell id="307" value="&lt;font style=&quot;font-size: 18px&quot; color=&quot;#ff66ff&quot;&gt;状态转移&lt;/font&gt;" style="text;strokeColor=none;fillColor=none;html=1;fontSize=24;fontStyle=1;verticalAlign=middle;align=center;" parent="1" vertex="1">
                    <mxGeometry x="798" y="2133.5" width="100" height="40" as="geometry"/>
                </mxCell>
                <mxCell id="309" value="条件1&lt;br&gt;||&lt;br&gt;条件2" style="rhombus;whiteSpace=wrap;html=1;fillColor=#60a917;strokeColor=#2D7600;fontColor=#ffffff;" parent="1" vertex="1">
                    <mxGeometry x="742" y="1610" width="110" height="110" as="geometry"/>
                </mxCell>
                <mxCell id="312" value="" style="rounded=1;whiteSpace=wrap;html=1;shadow=1;fillColor=#1ba1e2;strokeColor=#006EAF;fontColor=#ffffff;" parent="1" vertex="1">
                    <mxGeometry x="291" y="1518.38" width="400" height="290" as="geometry"/>
                </mxCell>
                <mxCell id="313" value="" style="edgeStyle=orthogonalEdgeStyle;rounded=0;orthogonalLoop=1;jettySize=auto;html=1;" parent="1" source="314" target="315" edge="1">
                    <mxGeometry relative="1" as="geometry"/>
                </mxCell>
                <mxCell id="314" value="&lt;font style=&quot;font-size: 18px&quot;&gt;LINE_OPEN&lt;/font&gt;" style="ellipse;whiteSpace=wrap;html=1;strokeColor=#314354;fillColor=#647687;fontColor=#ffffff;" parent="1" vertex="1">
                    <mxGeometry x="351" y="1558.38" width="120" height="80" as="geometry"/>
                </mxCell>
                <mxCell id="315" value="&lt;span style=&quot;font-size: 18px&quot;&gt;LINE_BAD&lt;/span&gt;" style="ellipse;whiteSpace=wrap;html=1;strokeColor=#314354;fillColor=#647687;fontColor=#ffffff;" parent="1" vertex="1">
                    <mxGeometry x="551" y="1558.38" width="120" height="80" as="geometry"/>
                </mxCell>
                <mxCell id="316" value="&lt;font style=&quot;font-size: 18px&quot; color=&quot;#000000&quot;&gt;LINE_OK&lt;/font&gt;" style="ellipse;whiteSpace=wrap;html=1;strokeColor=#82b366;fillColor=#d5e8d4;gradientColor=#97d077;" parent="1" vertex="1">
                    <mxGeometry x="351" y="1718.38" width="120" height="80" as="geometry"/>
                </mxCell>
                <mxCell id="317" value="&lt;font style=&quot;font-size: 16px&quot;&gt;读取到&lt;br&gt;\r\n&lt;br&gt;字符&lt;/font&gt;" style="text;strokeColor=none;fillColor=none;html=1;fontSize=24;fontStyle=1;verticalAlign=middle;align=center;" parent="1" vertex="1">
                    <mxGeometry x="331" y="1645.88" width="100" height="65" as="geometry"/>
                </mxCell>
                <mxCell id="318" value="&lt;font style=&quot;font-size: 16px&quot;&gt;新数据&lt;br&gt;到达&lt;/font&gt;" style="text;strokeColor=none;fillColor=none;html=1;fontSize=24;fontStyle=1;verticalAlign=middle;align=center;" parent="1" vertex="1">
                    <mxGeometry x="401" y="1658.38" width="100" height="40" as="geometry"/>
                </mxCell>
                <mxCell id="319" value="" style="endArrow=classic;html=1;exitX=0.583;exitY=0;exitDx=0;exitDy=0;exitPerimeter=0;" parent="1" source="316" edge="1">
                    <mxGeometry width="50" height="50" relative="1" as="geometry">
                        <mxPoint x="423.8000000000002" y="1708.38" as="sourcePoint"/>
                        <mxPoint x="421" y="1638.38" as="targetPoint"/>
                    </mxGeometry>
                </mxCell>
                <mxCell id="320" value="" style="endArrow=classic;html=1;exitX=0.8;exitY=-0.038;exitDx=0;exitDy=0;exitPerimeter=0;entryX=0.5;entryY=0;entryDx=0;entryDy=0;" parent="1" source="317" target="316" edge="1">
                    <mxGeometry width="50" height="50" relative="1" as="geometry">
                        <mxPoint x="446.24000000000024" y="1734.38" as="sourcePoint"/>
                        <mxPoint x="443.44000000000005" y="1664.38" as="targetPoint"/>
                    </mxGeometry>
                </mxCell>
                <mxCell id="321" value="&lt;font style=&quot;font-size: 16px&quot;&gt;报文语&lt;br&gt;法错误&lt;/font&gt;" style="text;strokeColor=none;fillColor=none;html=1;fontSize=24;fontStyle=1;verticalAlign=middle;align=center;" parent="1" vertex="1">
                    <mxGeometry x="461" y="1578.38" width="100" height="40" as="geometry"/>
                </mxCell>
                <mxCell id="322" value="&lt;font style=&quot;font-size: 18px&quot;&gt;parse_line&lt;/font&gt;" style="rounded=1;whiteSpace=wrap;html=1;strokeColor=#3A5431;fillColor=#6d8764;fontColor=#ffffff;" parent="1" vertex="1">
                    <mxGeometry x="421" y="1412" width="120" height="60" as="geometry"/>
                </mxCell>
                <mxCell id="323" value="&lt;font color=&quot;#ff66ff&quot;&gt;从状态机&lt;/font&gt;" style="text;strokeColor=none;fillColor=none;html=1;fontSize=24;fontStyle=1;verticalAlign=middle;align=center;" parent="1" vertex="1">
                    <mxGeometry x="309" y="1522" width="100" height="40" as="geometry"/>
                </mxCell>
                <mxCell id="325" value="&lt;font style=&quot;font-size: 12px&quot; color=&quot;#ff0000&quot;&gt;条件2:解析行&lt;/font&gt;" style="text;strokeColor=none;fillColor=none;html=1;fontSize=24;fontStyle=1;verticalAlign=middle;align=center;" parent="1" vertex="1">
                    <mxGeometry x="255" y="1480" width="70" height="30" as="geometry"/>
                </mxCell>
                <mxCell id="326" value="&lt;div style=&quot;color: rgb(212 , 212 , 212) ; font-family: &amp;#34;droid sans mono&amp;#34; , monospace , monospace , &amp;#34;droid sans fallback&amp;#34; ; line-height: 27px&quot;&gt;&lt;span style=&quot;background-color: rgb(0 , 0 , 0)&quot;&gt;(&lt;span style=&quot;color: rgb(156 , 220 , 254)&quot;&gt;line_status&lt;/span&gt;&amp;nbsp;=&amp;nbsp;&lt;span style=&quot;color: rgb(220 , 220 , 170)&quot;&gt;parse_line&lt;/span&gt;()) ==&amp;nbsp;&lt;span style=&quot;color: rgb(79 , 193 , 255)&quot;&gt;LINE_OK&lt;/span&gt;&lt;/span&gt;&lt;br&gt;&lt;/div&gt;" style="text;html=1;align=center;verticalAlign=middle;resizable=0;points=[];autosize=1;fillColor=#a20025;strokeColor=#6F0000;fontColor=#ffffff;" parent="1" vertex="1">
                    <mxGeometry x="309" y="1480" width="300" height="30" as="geometry"/>
                </mxCell>
                <mxCell id="330" value="" style="endArrow=none;html=1;shadow=1;strokeColor=#FFFDFC;entryX=0.5;entryY=1;entryDx=0;entryDy=0;" parent="1" target="309" edge="1">
                    <mxGeometry width="50" height="50" relative="1" as="geometry">
                        <mxPoint x="797" y="1810" as="sourcePoint"/>
                        <mxPoint x="787" y="1870" as="targetPoint"/>
                    </mxGeometry>
                </mxCell>
                <mxCell id="331" value="" style="edgeStyle=elbowEdgeStyle;elbow=vertical;endArrow=classic;html=1;shadow=1;strokeColor=#FFFDFC;" parent="1" edge="1">
                    <mxGeometry width="50" height="50" relative="1" as="geometry">
                        <mxPoint x="797" y="1810" as="sourcePoint"/>
                        <mxPoint x="477" y="1900" as="targetPoint"/>
                    </mxGeometry>
                </mxCell>
                <mxCell id="332" value="" style="endArrow=classic;html=1;shadow=1;strokeColor=#FFFDFC;" parent="1" edge="1">
                    <mxGeometry width="50" height="50" relative="1" as="geometry">
                        <mxPoint x="797" y="1820" as="sourcePoint"/>
                        <mxPoint x="797" y="1900" as="targetPoint"/>
                    </mxGeometry>
                </mxCell>
                <mxCell id="333" value="" style="edgeStyle=elbowEdgeStyle;elbow=vertical;endArrow=classic;html=1;shadow=1;strokeColor=#FFFDFC;" parent="1" edge="1">
                    <mxGeometry width="50" height="50" relative="1" as="geometry">
                        <mxPoint x="797" y="1784" as="sourcePoint"/>
                        <mxPoint x="1079" y="1890" as="targetPoint"/>
                        <Array as="points">
                            <mxPoint x="937" y="1854"/>
                        </Array>
                    </mxGeometry>
                </mxCell>
                <mxCell id="338" value="&lt;span&gt;m_check_state&lt;/span&gt;" style="ellipse;whiteSpace=wrap;html=1;" parent="1" vertex="1">
                    <mxGeometry x="747" y="1790" width="100" height="30" as="geometry"/>
                </mxCell>
                <mxCell id="340" value="" style="endArrow=classic;startArrow=classic;html=1;shadow=1;strokeColor=#FFFDFC;entryX=0;entryY=0.5;entryDx=0;entryDy=0;" parent="1" edge="1">
                    <mxGeometry width="50" height="50" relative="1" as="geometry">
                        <mxPoint x="691" y="1666" as="sourcePoint"/>
                        <mxPoint x="742" y="1666" as="targetPoint"/>
                    </mxGeometry>
                </mxCell>
                <mxCell id="342" value="&lt;div style=&quot;color: rgb(212 , 212 , 212) ; background-color: rgb(30 , 30 , 30) ; font-family: &amp;#34;droid sans mono&amp;#34; , monospace , monospace , &amp;#34;droid sans fallback&amp;#34; ; font-size: 20px ; line-height: 27px&quot;&gt;&lt;span style=&quot;color: #9cdcfe&quot;&gt;m_check_state&lt;/span&gt; == &lt;span style=&quot;color: #4fc1ff&quot;&gt;CHECK_STATE_CONTENT&lt;/span&gt; &amp;amp;&amp;amp; &lt;span style=&quot;color: #9cdcfe&quot;&gt;line_status&lt;/span&gt; == &lt;span style=&quot;color: #4fc1ff&quot;&gt;LINE_O&lt;/span&gt;&lt;/div&gt;" style="rounded=0;whiteSpace=wrap;html=1;fillColor=#a20025;strokeColor=#6F0000;fontColor=#ffffff;" parent="1" vertex="1">
                    <mxGeometry x="891" y="1633.38" width="769" height="60" as="geometry"/>
                </mxCell>
                <mxCell id="344" value="&lt;font style=&quot;font-size: 12px&quot; color=&quot;#ff0000&quot;&gt;条件1:检查状态&lt;/font&gt;" style="text;strokeColor=none;fillColor=none;html=1;fontSize=24;fontStyle=1;verticalAlign=middle;align=center;" parent="1" vertex="1">
                    <mxGeometry x="899" y="1578.38" width="70" height="30" as="geometry"/>
                </mxCell>
                <mxCell id="345" value="" style="endArrow=classic;startArrow=classic;html=1;shadow=1;strokeColor=#FFFDFC;exitX=1;exitY=0.5;exitDx=0;exitDy=0;" parent="1" source="309" edge="1">
                    <mxGeometry width="50" height="50" relative="1" as="geometry">
                        <mxPoint x="839" y="1710.88" as="sourcePoint"/>
                        <mxPoint x="889" y="1665" as="targetPoint"/>
                    </mxGeometry>
                </mxCell>
                <mxCell id="352" value="&lt;font color=&quot;#ff0000&quot;&gt;HTTP请求报文解析流程图&lt;/font&gt;" style="text;strokeColor=none;fillColor=none;html=1;fontSize=24;fontStyle=1;verticalAlign=middle;align=center;shadow=1;" parent="1" vertex="1">
                    <mxGeometry x="551" y="2264" width="477" height="50" as="geometry"/>
                </mxCell>
            </root>
        </mxGraphModel>
    </diagram>
</mxfile>